# xmcd
# 
# Track frame offsets:
#     150
#     14227
#     29622
#     50632
#     69790
#     85040
#     100487
#     130672
#     149057
#     159197
#     210662
#     232877
#     244357
#     256820
#     285265
#     301160
#     316517
# 
# Disc length: 4547
# 
# Revision: 2
# Processed by: cddbd v1.5.2PL0 Copyright (c) Steve Scherf et al.
# Submitted via: BonkEnc v1.0rc1
# 
DISCID=e211c111
DTITLE=Matumbi - Empire Road
DYEAR=0
DGENRE=Reggae
TTITLE0=Bluebeat and Ska
TTITLE1=Empire Road
TTITLE2=Music In The Air
TTITLE3=Hook Deh
TTITLE4=Malfunction
TTITLE5=Breakdown
TTITLE6=Point Of A View
TTITLE7=Guide Us Jah
TTITLE8=Straight To My Road
TTITLE9=Rock
TTITLE10=Ordinary Man
TTITLE11=Come With Me
TTITLE12=War
TTITLE13=Nothing At All
TTITLE14=Black Civilisation
TTITLE15=Black Man
TTITLE16=Bluebeat and Ska
EXTD=
EXTT0=
EXTT1=
EXTT2=
EXTT3=
EXTT4=
EXTT5=
EXTT6=
EXTT7=
EXTT8=
EXTT9=
EXTT10=
EXTT11=
EXTT12=
EXTT13=
EXTT14=
EXTT15=
EXTT16=
PLAYORDER=
